<?xml version="1.0" standalone="no"?>
<!DOCTYPE svg PUBLIC "-//W3C//DTD SVG 20010904//EN"
 "http://www.w3.org/TR/2001/REC-SVG-20010904/DTD/svg10.dtd">
<svg version="1.0" xmlns="http://www.w3.org/2000/svg"
 width="1024.000000pt" height="1536.000000pt" viewBox="0 0 1024.000000 1536.000000"
 preserveAspectRatio="xMidYMid meet">

<g transform="translate(0.000000,1536.000000) scale(0.100000,-0.100000)"
fill="#000000" stroke="none">
<path d="M5483 12333 c-17 -10 -60 -38 -95 -63 -79 -55 -205 -110 -334 -145
-372 -102 -612 -271 -738 -523 -116 -231 -113 -554 9 -834 6 -14 2 -18 -17
-18 -35 0 -251 -54 -379 -96 -233 -75 -465 -179 -664 -299 -60 -36 -111 -65
-114 -65 -4 0 -62 52 -129 115 -306 286 -603 502 -916 666 -158 82 -232 109
-301 109 -95 0 -129 -49 -189 -270 -80 -298 -101 -460 -100 -770 1 -307 24
-461 105 -703 62 -187 178 -397 285 -516 l47 -52 -81 -167 c-89 -186 -156
-348 -227 -555 -35 -102 -58 -150 -84 -181 -20 -24 -104 -121 -186 -217 -351
-406 -627 -748 -652 -808 -31 -74 13 -157 123 -227 130 -83 403 -207 610 -276
l93 -32 -52 -55 c-331 -353 -327 -348 -327 -399 0 -116 338 -537 705 -876 396
-365 760 -620 1190 -831 520 -256 975 -386 1565 -447 188 -20 707 -17 897 5
862 98 1646 435 2368 1017 308 248 618 566 876 895 141 180 152 211 100 281
-23 33 -173 203 -257 294 l-24 26 133 38 c179 53 428 147 567 215 145 71 230
147 230 206 0 21 -10 53 -22 74 -70 113 -399 523 -755 938 l-173 201 -54 154
c-69 195 -164 433 -227 567 l-49 104 39 43 c164 177 291 429 366 725 51 199
60 292 59 604 0 270 -2 300 -27 435 -52 283 -107 466 -158 524 -60 69 -125 58
-364 -59 -313 -153 -721 -448 -996 -718 l-86 -84 -54 34 c-421 267 -941 442
-1472 494 -70 7 -127 16 -127 20 0 5 16 36 36 70 100 171 203 429 238 599 69
335 33 716 -77 818 -34 32 -93 38 -134 15z m-24 -350 c-1 -37 -1 -37 -8 -8 -7
28 -5 45 5 45 2 0 3 -17 3 -37z m-29 12 c0 -2 -13 -11 -30 -20 -38 -19 -40
-11 -2 9 31 17 32 18 32 11z m-100 -55 c-8 -5 -19 -10 -25 -10 -5 0 -3 5 5 10
8 5 20 10 25 10 6 0 3 -5 -5 -10z m137 -122 c-2 -24 -4 -5 -4 42 0 47 2 66 4
43 2 -24 2 -62 0 -85z m-190 101 c-23 -13 -127 -49 -141 -48 -12 0 132 56 149
57 6 1 2 -3 -8 -9z m-160 -55 c-3 -3 -12 -4 -19 -1 -8 3 -5 6 6 6 11 1 17 -2
13 -5z m-122 -38 c-252 -92 -385 -209 -462 -410 -13 -33 -21 -47 -18 -31 10
55 73 169 126 228 60 67 131 123 209 162 65 33 199 84 220 84 8 0 -25 -15 -75
-33z m451 -221 c-9 -38 -13 -52 -10 -30 2 22 8 74 12 115 6 62 7 67 10 30 1
-25 -4 -76 -12 -115z m-21 -112 c-9 -52 -56 -196 -61 -191 -2 3 4 30 15 60 10
30 25 80 32 112 14 62 25 77 14 19z m-918 -180 c-3 -10 -5 -4 -5 12 0 17 2 24
5 18 2 -7 2 -21 0 -30z m-10 -160 c-2 -27 -3 -5 -3 47 0 52 1 74 3 48 2 -27 2
-69 0 -95z m854 110 c-12 -20 -14 -14 -5 12 4 9 9 14 11 11 3 -2 0 -13 -6 -23z
m-35 -80 c-14 -26 -25 -45 -26 -41 0 12 43 98 48 94 2 -2 -8 -26 -22 -53z
m-58 -113 c-18 -34 -63 -102 -99 -153 l-66 -92 -214 0 -214 -1 210 3 210 4 54
72 c29 39 74 107 99 150 53 91 68 104 20 17z m-751 -12 c-3 -7 -5 -2 -5 12 0
14 2 19 5 13 2 -7 2 -19 0 -25z m10 -50 c-3 -8 -6 -5 -6 6 -1 11 2 17 5 13 3
-3 4 -12 1 -19z m54 -125 c20 -45 33 -63 51 -66 22 -4 22 -4 -3 -6 -23 -1 -30
7 -57 67 -16 37 -33 78 -36 92 l-6 25 11 -25 c7 -14 24 -53 40 -87z m3813
-100 c51 -224 58 -280 63 -525 9 -420 -36 -664 -177 -953 -49 -101 -138 -245
-151 -245 -4 0 -42 60 -84 133 -109 185 -201 319 -336 487 -107 133 -285 318
-384 399 l-40 33 115 110 c204 195 449 380 710 536 136 80 240 139 251 141 3
0 18 -52 33 -116z m-6352 31 c164 -94 323 -198 448 -293 116 -88 324 -268 405
-351 55 -56 58 -62 41 -72 -76 -43 -329 -302 -484 -497 -104 -130 -249 -342
-302 -444 -19 -37 -38 -67 -42 -67 -16 0 -93 123 -148 235 -75 153 -124 316
-151 502 -19 129 -21 176 -16 382 3 135 12 274 21 326 19 118 78 355 88 355 4
0 67 -34 140 -76z m3405 -255 c535 -44 952 -172 1371 -421 387 -231 804 -688
1041 -1139 34 -64 61 -119 61 -122 0 -4 -8 -3 -17 3 -29 16 -133 56 -219 84
l-80 27 -14 52 c-7 28 -38 101 -68 161 -47 94 -68 123 -141 197 -215 217 -469
317 -851 335 -364 17 -659 -117 -830 -379 l-45 -68 -130 7 c-164 10 -707 10
-841 0 l-100 -7 -44 68 c-167 261 -472 401 -825 378 -132 -8 -289 -35 -411
-70 -331 -97 -566 -308 -669 -603 l-22 -64 -149 -49 c-81 -26 -150 -47 -152
-45 -11 12 117 231 231 396 204 294 530 616 807 795 386 251 882 419 1370 464
137 12 578 13 727 0z m-1596 -1612 c19 -12 44 -42 57 -67 20 -40 23 -57 20
-143 l-3 -98 -41 -39 c-48 -45 -108 -65 -239 -82 -77 -10 -98 -9 -147 5 -95
28 -128 87 -128 228 0 63 4 82 23 110 39 58 194 105 353 108 58 1 77 -3 105
-22z m2819 -2 c138 -29 180 -65 188 -159 10 -121 -16 -202 -80 -249 -59 -44
-304 -28 -400 26 -74 41 -108 174 -74 289 16 58 43 89 91 107 38 14 177 7 275
-14z m-1091 -470 c2 -2 13 -33 26 -69 121 -348 425 -559 885 -616 394 -48 725
76 933 352 l28 36 122 -43 c198 -70 726 -270 798 -303 35 -15 586 -674 810
-968 5 -5 -49 9 -119 33 -657 226 -1453 443 -2022 552 -640 123 -1174 178
-1830 188 -826 12 -1623 -57 -2435 -213 -422 -80 -1068 -251 -1558 -411 -76
-24 -140 -43 -142 -41 -7 6 362 451 557 672 49 55 108 123 131 152 l42 52 290
103 c284 100 664 229 675 229 3 0 28 -30 55 -66 172 -227 476 -350 822 -330
281 16 530 102 708 247 124 100 233 255 279 396 l17 52 117 3 c143 4 806 -2
811 -7z m106 -1105 c510 -35 934 -92 1428 -191 222 -45 636 -147 852 -210
l143 -41 22 -117 c27 -138 100 -407 129 -473 19 -46 135 -181 289 -340 l75
-77 -26 -38 c-106 -150 -441 -519 -615 -677 -501 -454 -994 -752 -1569 -949
-374 -128 -723 -193 -1171 -218 -509 -28 -1038 48 -1546 221 -354 121 -676
278 -1001 488 -409 264 -838 660 -1158 1070 l-89 113 139 142 c218 226 229
240 269 359 40 118 71 239 109 418 14 69 29 128 33 132 11 10 579 144 802 188
558 111 1169 187 1691 210 240 10 991 5 1194 -10z"/>
<path d="M4816 10549 c-82 -5 -157 -10 -165 -13 -9 -3 45 -2 119 1 74 3 207 9
295 13 l160 7 -130 0 c-71 0 -197 -4 -279 -8z"/>
<path d="M5231 10546 c2 -2 74 -6 159 -8 95 -3 128 -3 85 2 -74 8 -251 13
-244 6z"/>
<path d="M4530 10520 c-50 -11 1 -11 60 -1 41 8 42 8 10 8 -19 0 -51 -3 -70
-7z"/>
<path d="M5568 10523 c12 -2 32 -2 45 0 12 2 2 4 -23 4 -25 0 -35 -2 -22 -4z"/>
<path d="M5653 10513 c9 -2 25 -2 35 0 9 3 1 5 -18 5 -19 0 -27 -2 -17 -5z"/>
<path d="M4410 10500 c-34 -7 -34 -7 -5 -8 17 0 44 4 60 8 27 7 27 8 5 8 -14
-1 -41 -4 -60 -8z"/>
<path d="M5386 10497 c3 -10 9 -15 12 -12 3 3 0 11 -7 18 -10 9 -11 8 -5 -6z"/>
<path d="M5723 10503 c9 -2 23 -2 30 0 6 3 -1 5 -18 5 -16 0 -22 -2 -12 -5z"/>
<path d="M5788 10493 c6 -2 18 -2 25 0 6 3 1 5 -13 5 -14 0 -19 -2 -12 -5z"/>
<path d="M4348 10483 c7 -3 16 -2 19 1 4 3 -2 6 -13 5 -11 0 -14 -3 -6 -6z"/>
<path d="M5848 10483 c7 -3 16 -2 19 1 4 3 -2 6 -13 5 -11 0 -14 -3 -6 -6z"/>
<path d="M4298 10473 c6 -2 18 -2 25 0 6 3 1 5 -13 5 -14 0 -19 -2 -12 -5z"/>
<path d="M5895 10470 c19 -8 73 -14 64 -6 -2 2 -22 6 -44 9 -28 5 -34 4 -20
-3z"/>
<path d="M4230 10460 c-20 -6 -21 -8 -5 -8 11 0 29 3 40 8 25 11 -1 11 -35 0z"/>
<path d="M5978 10453 c6 -2 18 -2 25 0 6 3 1 5 -13 5 -14 0 -19 -2 -12 -5z"/>
<path d="M4178 10443 c7 -3 16 -2 19 1 4 3 -2 6 -13 5 -11 0 -14 -3 -6 -6z"/>
<path d="M6035 10440 c11 -5 27 -9 35 -9 9 0 8 4 -5 9 -11 5 -27 9 -35 9 -9 0
-8 -4 5 -9z"/>
<path d="M4095 10425 c-22 -8 -31 -13 -20 -13 11 0 36 6 55 13 45 17 18 17
-35 0z"/>
<path d="M6105 10420 c11 -5 27 -9 35 -9 9 0 8 4 -5 9 -11 5 -27 9 -35 9 -9 0
-8 -4 5 -9z"/>
<path d="M3977 10388 c-32 -11 -57 -22 -55 -24 5 -4 115 30 124 39 11 11 -6 7
-69 -15z"/>
<path d="M6170 10400 c8 -5 22 -9 30 -9 10 0 8 3 -5 9 -27 12 -43 12 -25 0z"/>
<path d="M5188 10383 c7 -3 16 -2 19 1 4 3 -2 6 -13 5 -11 0 -14 -3 -6 -6z"/>
<path d="M6230 10380 c8 -5 22 -9 30 -9 10 0 8 3 -5 9 -27 12 -43 12 -25 0z"/>
<path d="M6305 10356 c17 -7 41 -16 55 -20 20 -5 19 -3 -5 8 -16 7 -41 16 -55
20 -20 5 -19 3 5 -8z"/>
<path d="M3850 10340 c-8 -5 -10 -10 -5 -10 6 0 17 5 25 10 8 5 11 10 5 10 -5
0 -17 -5 -25 -10z"/>
<path d="M3775 10309 c-22 -10 -33 -18 -25 -18 8 0 31 8 50 19 45 25 27 24
-25 -1z"/>
<path d="M6420 10310 c8 -5 20 -10 25 -10 6 0 3 5 -5 10 -8 5 -19 10 -25 10
-5 0 -3 -5 5 -10z"/>
<path d="M6510 10270 c19 -11 40 -19 45 -19 6 0 -6 8 -25 19 -19 11 -39 19
-45 19 -5 0 6 -8 25 -19z"/>
<path d="M3625 10240 c-3 -6 1 -7 9 -4 18 7 21 14 7 14 -6 0 -13 -4 -16 -10z"/>
<path d="M6570 10245 c0 -7 61 -37 66 -33 2 3 -12 12 -31 21 -19 9 -35 15 -35
12z"/>
<path d="M3590 10220 c-9 -6 -10 -10 -3 -10 6 0 15 5 18 10 8 12 4 12 -15 0z"/>
<path d="M6653 10203 c4 -6 20 -16 37 -23 17 -7 27 -17 23 -24 -3 -6 -3 -8 2
-4 4 4 26 -2 49 -14 63 -31 30 -5 -48 37 -38 21 -67 34 -63 28z"/>
<path d="M3508 10179 c-21 -11 -38 -22 -38 -24 0 -3 18 4 40 15 22 11 40 23
40 25 0 7 0 7 -42 -16z"/>
<path d="M3409 10122 c-25 -15 -58 -36 -73 -47 -24 -18 -25 -21 -7 -21 11 0
18 4 15 7 -2 4 23 24 56 45 51 32 68 45 58 44 -2 0 -24 -13 -49 -28z"/>
<path d="M6840 10097 c0 -2 19 -17 43 -32 23 -16 37 -22 30 -14 -12 15 -73 53
-73 46z"/>
<path d="M6939 10027 c6 -8 7 -18 3 -22 -4 -5 -1 -5 6 -1 10 6 10 11 1 22 -6
8 -14 14 -16 14 -3 0 0 -6 6 -13z"/>
<path d="M3182 9965 c-45 -36 -82 -67 -82 -70 0 -3 27 16 61 42 83 65 115 92
109 93 -3 0 -43 -29 -88 -65z"/>
<path d="M7085 9915 c28 -27 49 -53 47 -59 -2 -6 0 -8 4 -3 4 4 21 -5 38 -20
17 -16 24 -20 17 -10 -8 9 -46 45 -85 78 -47 41 -54 45 -21 14z"/>
<path d="M3039 9843 l-34 -38 38 34 c20 19 37 36 37 38 0 8 -8 0 -41 -34z"/>
<path d="M7260 9755 c30 -30 57 -55 59 -55 3 0 -19 25 -49 55 -30 30 -57 55
-59 55 -3 0 19 -25 49 -55z"/>
<path d="M2935 9748 l-50 -52 46 39 c39 33 66 65 56 65 -2 0 -25 -23 -52 -52z"/>
<path d="M6365 9759 c-22 -3 27 -7 109 -8 82 0 147 1 145 4 -8 7 -211 11 -254
4z"/>
<path d="M3290 9756 c0 -2 7 -6 15 -10 8 -3 15 -1 15 4 0 6 -7 10 -15 10 -8 0
-15 -2 -15 -4z"/>
<path d="M3703 9753 c43 -2 110 -2 150 0 40 1 5 3 -78 3 -82 0 -115 -2 -72 -3z"/>
<path d="M3563 9743 c9 -2 23 -2 30 0 6 3 -1 5 -18 5 -16 0 -22 -2 -12 -5z"/>
<path d="M3948 9743 c6 -2 18 -2 25 0 6 3 1 5 -13 5 -14 0 -19 -2 -12 -5z"/>
<path d="M6273 9743 c9 -2 23 -2 30 0 6 3 -1 5 -18 5 -16 0 -22 -2 -12 -5z"/>
<path d="M6653 9743 c9 -2 25 -2 35 0 9 3 1 5 -18 5 -19 0 -27 -2 -17 -5z"/>
<path d="M3508 9733 c6 -2 18 -2 25 0 6 3 1 5 -13 5 -14 0 -19 -2 -12 -5z"/>
<path d="M4070 9715 c41 -13 76 -22 78 -20 5 4 -126 45 -142 44 -6 0 23 -11
64 -24z"/>
<path d="M6208 9733 c6 -2 18 -2 25 0 6 3 1 5 -13 5 -14 0 -19 -2 -12 -5z"/>
<path d="M6733 9733 c9 -2 23 -2 30 0 6 3 -1 5 -18 5 -16 0 -22 -2 -12 -5z"/>
<path d="M3265 9721 c-3 -5 -2 -12 3 -15 5 -3 9 1 9 9 0 17 -3 19 -12 6z"/>
<path d="M3347 9706 c-48 -13 -91 -27 -95 -31 -4 -4 2 -5 13 -1 17 5 139 35
200 49 16 4 15 5 -5 5 -14 0 -65 -10 -113 -22z"/>
<path d="M6145 9720 c-13 -5 -14 -9 -5 -9 8 0 24 4 35 9 13 5 14 9 5 9 -8 0
-24 -4 -35 -9z"/>
<path d="M6788 9723 c6 -2 18 -2 25 0 6 3 1 5 -13 5 -14 0 -19 -2 -12 -5z"/>
<path d="M6890 9700 c36 -10 66 -17 68 -15 5 5 -98 35 -117 34 -9 0 13 -9 49
-19z"/>
<path d="M6053 9690 c-34 -14 -28 -21 7 -9 17 6 30 13 30 15 0 6 -12 4 -37 -6z"/>
<path d="M2803 9613 c-63 -70 -143 -165 -183 -217 -12 -16 -12 -18 -1 -12 9 6
12 4 9 -5 -3 -8 -10 -14 -18 -14 -7 0 -24 -16 -37 -35 l-25 -35 31 35 c17 19
31 30 31 26 0 -5 7 -3 15 4 9 7 14 18 12 24 -2 6 5 25 17 41 26 38 181 214
208 238 12 10 19 20 16 22 -3 3 -36 -30 -75 -72z"/>
<path d="M7330 9682 c1 -4 33 -41 73 -82 73 -77 60 -58 -26 37 -26 29 -47 49
-47 45z"/>
<path d="M7006 9671 c-3 -5 1 -12 10 -15 22 -8 25 -4 9 11 -8 7 -16 9 -19 4z"/>
<path d="M7111 9664 c0 -11 3 -14 6 -6 3 7 2 16 -1 19 -3 4 -6 -2 -5 -13z"/>
<path d="M4201 9666 c2 -2 15 -9 29 -15 24 -11 24 -11 6 3 -16 13 -49 24 -35
12z"/>
<path d="M4940 9660 c0 -5 5 -10 10 -10 6 0 10 5 10 10 0 6 -4 10 -10 10 -5 0
-10 -4 -10 -10z"/>
<path d="M5984 9654 c-18 -14 -18 -14 6 -3 31 14 36 19 24 19 -6 0 -19 -7 -30
-16z"/>
<path d="M3180 9653 c-38 -13 -177 -86 -190 -100 -8 -8 8 -2 35 14 28 16 79
42 115 57 36 16 67 30 69 32 6 5 -11 4 -29 -3z"/>
<path d="M5075 9640 c-3 -5 -1 -10 4 -10 6 0 11 5 11 10 0 6 -2 10 -4 10 -3 0
-8 -4 -11 -10z"/>
<path d="M7091 9623 c24 -13 64 -36 88 -50 24 -14 41 -21 37 -15 -4 6 -34 26
-66 45 -33 18 -58 35 -56 38 2 2 -7 5 -21 6 -21 1 -19 -3 18 -24z"/>
<path d="M4260 9636 c0 -2 16 -13 36 -25 19 -12 32 -16 29 -11 -7 11 -65 43
-65 36z"/>
<path d="M2921 9604 c6 -7 17 -10 25 -7 20 7 18 10 -11 15 -20 4 -23 2 -14 -8z"/>
<path d="M5894 9598 l-19 -21 28 18 c28 18 33 25 19 25 -5 0 -17 -10 -28 -22z"/>
<path d="M4383 9549 c27 -24 67 -64 89 -89 22 -25 31 -31 20 -15 -21 31 -102
111 -137 135 -11 7 2 -6 28 -31z"/>
<path d="M5830 9549 c-19 -17 -26 -26 -15 -21 18 9 64 52 54 52 -2 0 -20 -14
-39 -31z"/>
<path d="M5093 9555 c0 -8 4 -12 9 -9 5 3 6 10 3 15 -9 13 -12 11 -12 -6z"/>
<path d="M7242 9534 c10 -10 20 -16 22 -13 3 3 -5 11 -17 18 -21 13 -21 12 -5
-5z"/>
<path d="M2899 9487 c-31 -28 -40 -38 -20 -22 20 17 50 40 66 52 17 12 26 23
20 23 -5 0 -35 -24 -66 -53z"/>
<path d="M5759 9483 l-24 -28 28 24 c15 14 27 26 27 28 0 8 -8 1 -31 -24z"/>
<path d="M7352 9441 c43 -40 97 -102 119 -137 47 -73 62 -85 27 -22 -26 46
-169 203 -202 220 -12 6 14 -22 56 -61z"/>
<path d="M7345 9500 c-3 -5 -1 -10 4 -10 6 0 11 5 11 10 0 6 -2 10 -4 10 -3 0
-8 -4 -11 -10z"/>
<path d="M7502 9480 c7 -11 17 -20 22 -20 5 0 1 9 -9 20 -10 11 -20 20 -22 20
-2 0 2 -9 9 -20z"/>
<path d="M5711 9430 c-13 -11 -19 -20 -14 -20 6 0 18 9 28 20 23 25 17 25 -14
0z"/>
<path d="M2769 9362 c-31 -37 -61 -78 -68 -92 l-12 -25 18 25 c10 13 36 46 58
73 50 62 69 87 64 87 -2 0 -29 -31 -60 -68z"/>
<path d="M4542 9363 c18 -28 35 -49 37 -47 5 4 -37 70 -54 84 -9 7 -1 -10 17
-37z"/>
<path d="M7597 9360 c22 -30 49 -70 59 -87 10 -18 22 -33 27 -33 10 0 -88 144
-111 162 -9 7 2 -12 25 -42z"/>
<path d="M5679 9383 c-13 -16 -12 -17 4 -4 9 7 17 15 17 17 0 8 -8 3 -21 -13z"/>
<path d="M4625 9351 c-3 -5 -2 -12 3 -15 5 -3 9 1 9 9 0 17 -3 19 -12 6z"/>
<path d="M4968 9353 c6 -2 18 -2 25 0 6 3 1 5 -13 5 -14 0 -19 -2 -12 -5z"/>
<path d="M5650 9340 c-6 -11 -8 -20 -6 -20 3 0 10 9 16 20 6 11 8 20 6 20 -3
0 -10 -9 -16 -20z"/>
<path d="M4912 9323 c92 -2 245 -2 340 0 95 1 20 3 -167 3 -187 0 -265 -2
-173 -3z"/>
<path d="M5439 9317 c4 -4 43 -7 87 -5 l79 3 -87 5 c-48 3 -83 1 -79 -3z"/>
<path d="M4628 9313 c23 -2 59 -2 80 0 20 2 1 4 -43 4 -44 0 -61 -2 -37 -4z"/>
<path d="M5618 9303 c7 -3 16 -2 19 1 4 3 -2 6 -13 5 -11 0 -14 -3 -6 -6z"/>
<path d="M2473 9183 c-78 -121 -137 -223 -129 -223 3 0 13 14 21 30 10 19 20
28 28 24 7 -4 9 -4 5 1 -12 12 82 182 94 170 2 -3 5 1 5 8 0 17 34 68 42 63 4
-3 7 4 7 15 0 10 -1 19 -2 19 -1 0 -33 -48 -71 -107z"/>
<path d="M2663 9208 c-23 -41 -66 -139 -61 -143 2 -2 22 37 45 86 43 92 49
113 16 57z"/>
<path d="M7528 9208 c7 -28 20 -31 18 -5 0 13 -6 24 -12 24 -6 0 -9 -9 -6 -19z"/>
<path d="M7699 9215 c5 -11 17 -29 26 -40 l16 -20 -10 20 c-5 11 -17 29 -26
40 l-16 20 10 -20z"/>
<path d="M7578 9193 c7 -3 16 -2 19 1 4 3 -2 6 -13 5 -11 0 -14 -3 -6 -6z"/>
<path d="M2510 9166 c0 -2 7 -7 16 -10 8 -3 12 -2 9 4 -6 10 -25 14 -25 6z"/>
<path d="M7552 9164 c2 -6 16 -45 33 -87 l30 -77 74 -25 c41 -14 76 -23 79
-21 2 2 -29 15 -68 27 -68 22 -72 26 -91 69 -24 56 -60 129 -57 114z"/>
<path d="M7750 9130 c6 -11 13 -20 16 -20 2 0 0 9 -6 20 -6 11 -13 20 -16 20
-2 0 0 -9 6 -20z"/>
<path d="M2512 9124 c-7 -8 -8 -14 -3 -14 10 0 25 19 20 25 -2 1 -10 -3 -17
-11z"/>
<path d="M2470 9085 c0 -6 6 -12 13 -12 8 0 14 6 14 12 0 6 -6 12 -14 12 -7 0
-13 -6 -13 -12z"/>
<path d="M2545 9090 c3 -5 8 -10 11 -10 2 0 4 5 4 10 0 6 -5 10 -11 10 -5 0
-7 -4 -4 -10z"/>
<path d="M7790 9066 c0 -11 30 -66 36 -66 2 0 -3 15 -12 33 -19 36 -24 44 -24
33z"/>
<path d="M2453 8977 c-50 -18 -95 -35 -99 -39 -6 -6 148 42 206 65 13 5 13 5
0 6 -8 0 -56 -15 -107 -32z"/>
<path d="M2326 8935 c-3 -8 -1 -15 4 -15 6 0 10 7 10 15 0 8 -2 15 -4 15 -2 0
-6 -7 -10 -15z"/>
<path d="M7790 8940 c8 -5 20 -10 25 -10 6 0 3 5 -5 10 -8 5 -19 10 -25 10 -5
0 -3 -5 5 -10z"/>
<path d="M3645 8949 c-91 -12 -195 -43 -228 -69 -37 -29 -51 -81 -44 -164 10
-141 59 -186 201 -186 146 0 285 46 316 106 22 41 20 199 -3 242 -10 19 -22
30 -29 26 -7 -4 -8 -3 -4 4 11 18 -37 42 -90 47 -27 2 -80 -1 -119 -6z"/>
<path d="M6400 8949 c-74 -22 -101 -72 -101 -189 0 -109 24 -164 84 -190 64
-29 220 -53 287 -45 126 15 163 63 164 210 1 99 -7 122 -54 155 -56 40 -311
79 -380 59z"/>
<path d="M4676 8461 c-9 -13 24 -19 58 -9 16 4 210 6 430 5 221 -2 356 0 301
3 -170 11 -783 11 -789 1z"/>
<path d="M4643 8429 c-7 -18 -11 -35 -8 -37 6 -6 27 48 23 60 -2 5 -9 -6 -15
-23z"/>
<path d="M5106 8427 c3 -10 9 -15 12 -12 3 3 0 11 -7 18 -10 9 -11 8 -5 -6z"/>
<path d="M5561 8430 c-1 -17 65 -160 74 -160 3 0 -7 23 -21 52 -15 29 -32 68
-40 88 -7 19 -13 28 -13 20z"/>
<path d="M4710 8419 c0 -5 5 -7 10 -4 6 3 10 8 10 11 0 2 -4 4 -10 4 -5 0 -10
-5 -10 -11z"/>
<path d="M4602 8335 c-12 -25 -20 -45 -17 -45 7 0 47 81 43 86 -3 2 -14 -17
-26 -41z"/>
<path d="M5085 8320 c-16 -7 -17 -9 -3 -9 9 -1 20 4 23 9 7 11 7 11 -20 0z"/>
<path d="M5400 8310 c0 -13 18 -22 24 -11 3 5 -1 11 -9 15 -8 3 -15 1 -15 -4z"/>
<path d="M4940 8288 c0 -12 3 -18 7 -14 11 10 12 36 2 36 -5 0 -9 -10 -9 -22z"/>
<path d="M5170 8300 c0 -5 5 -10 10 -10 6 0 10 5 10 10 0 6 -4 10 -10 10 -5 0
-10 -4 -10 -10z"/>
<path d="M5280 8301 c0 -7 -5 -9 -12 -5 -7 5 -8 3 -3 -5 5 -9 10 -10 18 -2 6
6 8 14 4 18 -4 3 -7 1 -7 -6z"/>
<path d="M4700 8290 c0 -5 5 -10 11 -10 5 0 7 5 4 10 -3 6 -8 10 -11 10 -2 0
-4 -4 -4 -10z"/>
<path d="M5097 8289 c7 -7 15 -10 18 -7 3 3 -2 9 -12 12 -14 6 -15 5 -6 -5z"/>
<path d="M4658 8273 c7 -3 16 -2 19 1 4 3 -2 6 -13 5 -11 0 -14 -3 -6 -6z"/>
<path d="M4512 8187 c-39 -54 -43 -61 -14 -29 34 38 78 102 70 102 -2 0 -27
-33 -56 -73z"/>
<path d="M4655 8240 c-4 -6 -11 -7 -17 -4 -7 4 -8 2 -4 -4 10 -16 23 -15 30 3
6 17 0 20 -9 5z"/>
<path d="M5007 8238 c-3 -9 7 -13 34 -14 22 0 39 3 39 6 0 4 -10 6 -22 6 -13
-1 -28 2 -34 6 -7 5 -14 3 -17 -4z"/>
<path d="M5091 8243 c-1 -17 11 -21 39 -12 25 9 25 9 -2 5 -15 -2 -29 2 -32 8
-3 7 -5 7 -5 -1z"/>
<path d="M5438 8240 c-15 -4 -28 -6 -30 -4 -2 2 -4 -6 -5 -17 -2 -17 0 -18 13
-4 9 8 22 15 29 15 8 0 17 5 20 10 3 6 5 10 3 9 -2 0 -15 -4 -30 -9z"/>
<path d="M4811 8224 c0 -11 3 -14 6 -6 3 7 2 16 -1 19 -3 4 -6 -2 -5 -13z"/>
<path d="M4865 8230 c-3 -5 -1 -10 4 -10 6 0 11 5 11 10 0 6 -2 10 -4 10 -3 0
-8 -4 -11 -10z"/>
<path d="M5177 8226 c-4 -10 -1 -13 9 -9 7 3 14 9 14 14 0 14 -17 10 -23 -5z"/>
<path d="M5360 8229 c0 -15 18 -19 23 -6 3 8 -1 14 -9 14 -8 0 -14 -4 -14 -8z"/>
<path d="M5492 8224 c-7 -8 -8 -14 -3 -14 10 0 25 19 20 25 -2 1 -10 -3 -17
-11z"/>
<path d="M5662 8215 c6 -14 15 -25 20 -25 5 0 1 11 -8 25 -9 14 -18 25 -20 25
-2 0 2 -11 8 -25z"/>
<path d="M5319 8203 c-13 -16 -12 -17 4 -4 9 7 17 15 17 17 0 8 -8 3 -21 -13z"/>
<path d="M4787 8203 c-3 -5 -1 -17 4 -28 6 -17 7 -16 6 8 -1 28 -3 32 -10 20z"/>
<path d="M4908 8193 c7 -3 16 -2 19 1 4 3 -2 6 -13 5 -11 0 -14 -3 -6 -6z"/>
<path d="M5340 8196 c0 -2 8 -10 18 -17 15 -13 16 -12 3 4 -13 16 -21 21 -21
13z"/>
<path d="M5470 8188 c0 -4 4 -8 9 -8 6 0 12 4 15 8 3 5 -1 9 -9 9 -8 0 -15 -4
-15 -9z"/>
<path d="M4864 8182 c3 -5 0 -13 -6 -15 -9 -4 -10 -6 -1 -6 17 -1 25 16 12 25
-7 4 -9 3 -5 -4z"/>
<path d="M5382 8164 c-7 -8 -8 -14 -3 -14 10 0 25 19 20 25 -2 1 -10 -3 -17
-11z"/>
<path d="M2738 8153 c6 -2 18 -2 25 0 6 3 1 5 -13 5 -14 0 -19 -2 -12 -5z"/>
<path d="M7426 8135 c-9 -14 -46 -58 -83 -98 l-66 -72 64 65 c82 84 121 130
110 130 -5 0 -16 -11 -25 -25z"/>
<path d="M2655 8129 c-27 -10 -37 -17 -21 -14 31 7 97 33 81 33 -5 0 -32 -8
-60 -19z"/>
<path d="M7495 8136 c17 -7 41 -16 55 -20 20 -5 19 -3 -5 8 -16 7 -41 16 -55
20 -20 5 -19 3 5 -8z"/>
<path d="M2770 8138 c0 -3 14 -22 30 -43 17 -21 30 -34 30 -29 -1 10 -60 82
-60 72z"/>
<path d="M5720 8136 c0 -2 8 -10 18 -17 15 -13 16 -12 3 4 -13 16 -21 21 -21
13z"/>
<path d="M2565 8100 c-16 -7 -16 -9 -4 -9 9 -1 19 -8 23 -16 3 -8 10 -15 16
-15 6 0 4 7 -5 16 -13 14 -14 19 -3 25 17 11 -1 10 -27 -1z"/>
<path d="M2490 8075 c-19 -7 -28 -14 -20 -14 8 0 29 6 45 14 39 17 21 18 -25
0z"/>
<path d="M2720 8077 c0 -10 8 -17 18 -17 9 0 13 4 7 8 -5 4 -13 11 -17 16 -5
5 -8 2 -8 -7z"/>
<path d="M4414 8068 l-19 -23 23 19 c21 18 27 26 19 26 -2 0 -12 -10 -23 -22z"/>
<path d="M5121 8083 c-1 -17 16 -25 25 -12 4 7 3 9 -4 5 -5 -3 -13 0 -15 6 -4
9 -6 10 -6 1z"/>
<path d="M5455 8080 c-3 -5 -1 -10 4 -10 6 0 11 5 11 10 0 6 -2 10 -4 10 -3 0
-8 -4 -11 -10z"/>
<path d="M5760 8087 c0 -2 26 -26 57 -53 31 -27 54 -44 50 -37 -9 14 -107 97
-107 90z"/>
<path d="M7645 8080 c3 -5 14 -10 23 -10 15 0 15 2 2 10 -20 13 -33 13 -25 0z"/>
<path d="M4967 8069 c7 -7 15 -10 18 -7 3 3 -2 9 -12 12 -14 6 -15 5 -6 -5z"/>
<path d="M5370 8069 c0 -5 5 -7 10 -4 6 3 10 8 10 11 0 2 -4 4 -10 4 -5 0 -10
-5 -10 -11z"/>
<path d="M7420 8071 c0 -6 4 -12 8 -15 5 -3 9 1 9 9 0 8 -4 15 -9 15 -4 0 -8
-4 -8 -9z"/>
<path d="M7535 8070 c-3 -5 -1 -10 4 -10 6 0 11 5 11 10 0 6 -2 10 -4 10 -3 0
-8 -4 -11 -10z"/>
<path d="M4861 8054 c0 -11 3 -14 6 -6 3 7 2 16 -1 19 -3 4 -6 -2 -5 -13z"/>
<path d="M5325 8060 c4 -6 11 -8 16 -5 14 9 11 15 -7 15 -8 0 -12 -5 -9 -10z"/>
<path d="M7610 8059 c0 -5 5 -7 10 -4 6 3 10 8 10 11 0 2 -4 4 -10 4 -5 0 -10
-5 -10 -11z"/>
<path d="M7700 8062 c8 -5 26 -13 40 -16 17 -5 20 -4 10 2 -8 5 -26 13 -40 16
-17 5 -20 4 -10 -2z"/>
<path d="M5150 8049 c0 -5 5 -7 10 -4 6 3 10 8 10 11 0 2 -4 4 -10 4 -5 0 -10
-5 -10 -11z"/>
<path d="M2362 8033 c-24 -8 -41 -17 -39 -19 4 -5 97 26 97 32 0 6 -11 4 -58
-13z"/>
<path d="M2850 8036 c8 -11 41 -41 72 -67 31 -26 55 -50 52 -53 -2 -3 -1 -4 2
-1 4 2 15 0 25 -6 32 -17 21 -3 -18 23 -21 14 -63 47 -93 74 -30 27 -48 40
-40 30z"/>
<path d="M4349 8013 c-13 -15 -17 -22 -8 -15 9 6 19 10 22 7 4 -3 5 -2 2 2 -3
3 0 12 6 20 21 25 3 13 -22 -14z"/>
<path d="M7799 8025 c18 -8 38 -15 45 -15 6 1 -4 7 -23 15 -18 8 -38 15 -45
15 -6 -1 4 -7 23 -15z"/>
<path d="M5550 8015 c0 -8 4 -15 10 -15 5 0 7 7 4 15 -4 8 -8 15 -10 15 -2 0
-4 -7 -4 -15z"/>
<path d="M5425 8010 c3 -5 8 -10 11 -10 2 0 4 5 4 10 0 6 -5 10 -11 10 -5 0
-7 -4 -4 -10z"/>
<path d="M2222 7983 c-40 -14 -71 -27 -69 -29 5 -5 129 36 142 47 12 12 12 12
-73 -18z"/>
<path d="M7860 8007 c0 -8 161 -69 166 -64 3 2 -30 17 -73 33 -43 16 -81 31
-85 32 -4 2 -8 1 -8 -1z"/>
<path d="M5884 7981 c7 -11 46 -35 46 -28 0 3 -12 12 -26 22 -15 9 -23 12 -20
6z"/>
<path d="M2706 7971 c-3 -5 1 -11 9 -14 9 -4 12 -1 8 9 -6 16 -10 17 -17 5z"/>
<path d="M5300 7970 c0 -5 5 -10 11 -10 5 0 7 5 4 10 -3 6 -8 10 -11 10 -2 0
-4 -4 -4 -10z"/>
<path d="M5544 7960 c0 -13 4 -16 10 -10 7 7 7 13 0 20 -6 6 -10 3 -10 -10z"/>
<path d="M4260 7950 c-14 -11 -20 -20 -14 -20 6 0 19 9 29 20 23 25 17 25 -15
0z"/>
<path d="M5139 7953 c-13 -16 -12 -17 4 -4 16 13 21 21 13 21 -2 0 -10 -8 -17
-17z"/>
<path d="M7235 7945 c-16 -13 -27 -26 -25 -28 3 -3 19 8 35 24 36 35 31 37
-10 4z"/>
<path d="M2527 7933 c-3 -5 -2 -15 2 -22 5 -7 11 -9 14 -4 3 5 2 15 -2 22 -5
7 -11 9 -14 4z"/>
<path d="M4545 7931 c-3 -5 -2 -12 3 -15 5 -3 9 1 9 9 0 17 -3 19 -12 6z"/>
<path d="M5751 7924 c0 -11 3 -14 6 -6 3 7 2 16 -1 19 -3 4 -6 -2 -5 -13z"/>
<path d="M7585 7930 c3 -5 8 -10 11 -10 2 0 4 5 4 10 0 6 -5 10 -11 10 -5 0
-7 -4 -4 -10z"/>
<path d="M7670 7930 c-9 -6 -10 -10 -3 -10 6 0 15 5 18 10 8 12 4 12 -15 0z"/>
<path d="M2015 7909 c-27 -10 -37 -17 -21 -14 31 7 97 33 81 33 -5 0 -32 -8
-60 -19z"/>
<path d="M4215 7920 c-3 -5 -1 -10 4 -10 6 0 11 5 11 10 0 6 -2 10 -4 10 -3 0
-8 -4 -11 -10z"/>
<path d="M5975 7921 c6 -11 96 -53 101 -48 2 2 -22 15 -52 30 -31 15 -53 23
-49 18z"/>
<path d="M4480 7916 c0 -2 7 -7 16 -10 8 -3 12 -2 9 4 -6 10 -25 14 -25 6z"/>
<path d="M5370 7905 c0 -8 2 -15 4 -15 2 0 6 7 10 15 3 8 1 15 -4 15 -6 0 -10
-7 -10 -15z"/>
<path d="M7167 7901 c-41 -26 -46 -36 -10 -17 17 9 35 20 38 26 8 13 6 12 -28
-9z"/>
<path d="M4125 7880 c-33 -16 -54 -29 -47 -30 7 0 31 9 53 21 34 17 43 18 57
7 15 -11 15 -11 4 4 -10 13 -10 17 0 21 7 3 9 5 3 5 -5 0 -37 -13 -70 -28z"/>
<path d="M5503 7889 c-2 -23 3 -25 10 -4 4 8 3 16 -1 19 -4 3 -9 -4 -9 -15z"/>
<path d="M8130 7900 c8 -5 20 -10 25 -10 6 0 3 5 -5 10 -8 5 -19 10 -25 10 -5
0 -3 -5 5 -10z"/>
<path d="M5315 7891 c-3 -5 -2 -12 3 -15 5 -3 9 1 9 9 0 17 -3 19 -12 6z"/>
<path d="M1900 7870 c-25 -10 -38 -19 -30 -19 17 1 101 37 85 38 -5 0 -30 -9
-55 -19z"/>
<path d="M2860 7879 c0 -5 5 -7 10 -4 6 3 10 8 10 11 0 2 -4 4 -10 4 -5 0 -10
-5 -10 -11z"/>
<path d="M3050 7885 c0 -7 61 -37 66 -33 2 3 -12 12 -31 21 -19 9 -35 15 -35
12z"/>
<path d="M8180 7880 c8 -5 20 -10 25 -10 6 0 3 5 -5 10 -8 5 -19 10 -25 10 -5
0 -3 -5 5 -10z"/>
<path d="M2496 7872 c-3 -5 1 -9 9 -9 8 0 12 4 9 9 -3 4 -7 8 -9 8 -2 0 -6 -4
-9 -8z"/>
<path d="M2565 7860 c-3 -5 -1 -10 4 -10 6 0 11 5 11 10 0 6 -2 10 -4 10 -3 0
-8 -4 -11 -10z"/>
<path d="M2613 7855 c-3 -9 -3 -18 -1 -21 3 -3 8 4 11 16 6 23 -1 27 -10 5z"/>
<path d="M2797 7863 c-10 -10 -8 -23 4 -23 5 0 8 4 5 9 -4 5 0 12 6 14 7 3 8
6 2 6 -6 1 -14 -2 -17 -6z"/>
<path d="M7083 7854 c-18 -8 -33 -16 -33 -19 0 -7 60 16 66 26 6 11 7 11 -33
-7z"/>
<path d="M7967 7856 c-3 -8 2 -20 11 -27 14 -11 15 -11 5 0 -6 7 -9 20 -6 27
3 8 3 14 0 14 -3 0 -7 -6 -10 -14z"/>
<path d="M8230 7860 c8 -5 20 -10 25 -10 6 0 3 5 -5 10 -8 5 -19 10 -25 10 -5
0 -3 -5 5 -10z"/>
<path d="M2383 7845 c-3 -9 -3 -18 -1 -21 3 -3 8 4 11 16 6 23 -1 27 -10 5z"/>
<path d="M2523 7853 c-15 -5 -17 -23 -4 -23 5 0 11 7 15 15 3 8 4 15 3 14 -1
0 -8 -3 -14 -6z"/>
<path d="M2715 7850 c-3 -5 1 -10 10 -10 9 0 13 5 10 10 -3 6 -8 10 -10 10 -2
0 -7 -4 -10 -10z"/>
<path d="M4447 7849 c7 -7 15 -10 18 -7 3 3 -2 9 -12 12 -14 6 -15 5 -6 -5z"/>
<path d="M4918 7853 c6 -2 9 -10 6 -15 -4 -7 -2 -8 4 -4 18 11 14 26 -5 25
-11 0 -13 -3 -5 -6z"/>
<path d="M5390 7848 c0 -4 4 -8 9 -8 6 0 12 4 15 8 3 5 -1 9 -9 9 -8 0 -15 -4
-15 -9z"/>
<path d="M6120 7852 c8 -5 26 -13 40 -16 17 -5 20 -4 10 2 -8 5 -26 13 -40 16
-17 5 -20 4 -10 -2z"/>
<path d="M3980 7828 c-36 -10 -105 -28 -155 -38 -61 -14 -73 -18 -39 -15 29 3
87 15 129 26 43 11 84 18 92 15 8 -3 11 -1 8 4 -3 6 5 10 19 10 14 0 26 5 26
10 0 12 0 12 -80 -12z"/>
<path d="M4650 7846 c0 -2 7 -7 16 -10 8 -3 12 -2 9 4 -6 10 -25 14 -25 6z"/>
<path d="M8280 7840 c8 -5 20 -10 25 -10 6 0 3 5 -5 10 -8 5 -19 10 -25 10 -5
0 -3 -5 5 -10z"/>
<path d="M3160 7830 c8 -5 20 -10 25 -10 6 0 3 5 -5 10 -8 5 -19 10 -25 10 -5
0 -3 -5 5 -10z"/>
<path d="M1901 7814 c0 -11 3 -14 6 -6 3 7 2 16 -1 19 -3 4 -6 -2 -5 -13z"/>
<path d="M2470 7820 c8 -5 20 -10 25 -10 6 0 3 5 -5 10 -8 5 -19 10 -25 10 -5
0 -3 -5 5 -10z"/>
<path d="M6995 7820 c-13 -5 -14 -9 -5 -9 8 0 24 4 35 9 13 5 14 9 5 9 -8 0
-24 -4 -35 -9z"/>
<path d="M7415 7821 c-3 -5 -2 -12 3 -15 5 -3 9 1 9 9 0 17 -3 19 -12 6z"/>
<path d="M8325 7820 c3 -5 8 -10 11 -10 2 0 4 5 4 10 0 6 -5 10 -11 10 -5 0
-7 -4 -4 -10z"/>
<path d="M1749 7768 c-53 -64 -75 -96 -36 -53 42 46 89 105 84 105 -2 0 -24
-24 -48 -52z"/>
<path d="M4656 7807 c3 -10 9 -15 12 -12 3 3 0 11 -7 18 -10 9 -11 8 -5 -6z"/>
<path d="M6228 7813 c7 -3 16 -2 19 1 4 3 -2 6 -13 5 -11 0 -14 -3 -6 -6z"/>
<path d="M8369 7796 c29 -31 35 -33 22 -7 -6 10 -18 22 -28 25 -13 5 -11 1 6
-18z"/>
<path d="M2620 7799 c0 -5 5 -7 10 -4 6 3 10 8 10 11 0 2 -4 4 -10 4 -5 0 -10
-5 -10 -11z"/>
<path d="M3235 7805 c33 -12 126 -33 119 -26 -10 9 -96 31 -116 30 -7 0 -8 -2
-3 -4z"/>
<path d="M4536 7793 c-6 -14 -5 -15 5 -6 7 7 10 15 7 18 -3 3 -9 -2 -12 -12z"/>
<path d="M6268 7803 c6 -2 18 -2 25 0 6 3 1 5 -13 5 -14 0 -19 -2 -12 -5z"/>
<path d="M6910 7794 l-45 -14 40 6 c22 3 47 10 55 15 21 12 3 10 -50 -7z"/>
<path d="M5324 7792 c3 -5 0 -13 -6 -15 -9 -4 -10 -6 -1 -6 17 -1 25 16 12 25
-7 4 -9 3 -5 -4z"/>
<path d="M6330 7790 c14 -4 36 -8 50 -8 22 0 22 1 -5 8 -16 4 -39 8 -50 8 -16
0 -15 -2 5 -8z"/>
<path d="M3029 7773 c-13 -16 -12 -17 4 -4 16 13 21 21 13 21 -2 0 -10 -8 -17
-17z"/>
<path d="M2250 7765 c0 -8 4 -15 10 -15 5 0 7 7 4 15 -4 8 -8 15 -10 15 -2 0
-4 -7 -4 -15z"/>
<path d="M2730 7771 c0 -6 4 -13 10 -16 6 -3 7 1 4 9 -7 18 -14 21 -14 7z"/>
<path d="M3378 7773 c6 -2 18 -2 25 0 6 3 1 5 -13 5 -14 0 -19 -2 -12 -5z"/>
<path d="M3926 7765 c-3 -8 -1 -15 4 -15 6 0 10 7 10 15 0 8 -2 15 -4 15 -2 0
-6 -7 -10 -15z"/>
<path d="M4006 7765 c4 -8 8 -15 10 -15 2 0 4 7 4 15 0 8 -4 15 -10 15 -5 0
-7 -7 -4 -15z"/>
<path d="M6251 7764 c0 -11 3 -14 6 -6 3 7 2 16 -1 19 -3 4 -6 -2 -5 -13z"/>
<path d="M6423 7773 c9 -2 25 -2 35 0 9 3 1 5 -18 5 -19 0 -27 -2 -17 -5z"/>
<path d="M6813 7773 c9 -2 23 -2 30 0 6 3 -1 5 -18 5 -16 0 -22 -2 -12 -5z"/>
<path d="M3438 7760 c13 -5 28 -8 32 -5 5 3 13 -3 19 -12 8 -14 10 -15 11 -3
0 12 10 14 48 11 26 -2 44 0 41 3 -3 3 -43 8 -90 11 -62 4 -78 3 -61 -5z"/>
<path d="M3606 7761 c-3 -5 21 -8 53 -7 33 0 57 4 54 9 -6 10 -101 9 -107 -2z"/>
<path d="M5935 7759 c-4 -6 -5 -12 -2 -15 2 -3 7 2 10 11 7 17 1 20 -8 4z"/>
<path d="M6525 7760 c22 -5 59 -9 83 -9 26 -1 41 -5 37 -11 -3 -5 -1 -10 4
-10 6 0 11 7 11 15 0 9 -9 15 -24 15 -12 0 -52 2 -87 5 -55 4 -58 3 -24 -5z"/>
<path d="M6710 7766 c0 -9 50 -12 62 -5 8 6 -1 9 -24 9 -21 0 -38 -2 -38 -4z"/>
<path d="M2376 7747 c3 -10 9 -15 12 -12 3 3 0 11 -7 18 -10 9 -11 8 -5 -6z"/>
<path d="M6366 7751 c-3 -5 1 -11 9 -14 9 -4 12 -1 8 9 -6 16 -10 17 -17 5z"/>
<path d="M8410 7757 c0 -4 11 -20 25 -35 18 -19 21 -28 12 -35 -8 -5 -7 -7 5
-5 10 2 49 -35 108 -104 50 -60 94 -108 97 -108 4 0 -2 10 -13 23 -11 12 -63
72 -114 132 -116 137 -120 141 -120 132z"/>
<path d="M2485 7740 c-3 -5 -1 -10 4 -10 6 0 11 5 11 10 0 6 -2 10 -4 10 -3 0
-8 -4 -11 -10z"/>
<path d="M5050 7736 c0 -2 8 -10 18 -17 15 -13 16 -12 3 4 -13 16 -21 21 -21
13z"/>
<path d="M6396 7722 c-3 -5 1 -9 9 -9 8 0 15 4 15 9 0 4 -4 8 -9 8 -6 0 -12
-4 -15 -8z"/>
<path d="M6460 7720 c0 -5 5 -10 11 -10 5 0 7 5 4 10 -3 6 -8 10 -11 10 -2 0
-4 -4 -4 -10z"/>
<path d="M7340 7720 c0 -5 5 -10 11 -10 5 0 7 5 4 10 -3 6 -8 10 -11 10 -2 0
-4 -4 -4 -10z"/>
<path d="M3485 7710 c-3 -6 1 -7 9 -4 18 7 21 14 7 14 -6 0 -13 -4 -16 -10z"/>
<path d="M2675 7700 c-3 -5 -1 -10 4 -10 6 0 11 5 11 10 0 6 -2 10 -4 10 -3 0
-8 -4 -11 -10z"/>
<path d="M3425 7690 c-4 -6 -11 -8 -16 -5 -5 3 -6 -1 -3 -10 4 -9 7 -15 8 -13
1 2 8 11 15 21 7 9 11 17 8 17 -3 0 -9 -5 -12 -10z"/>
<path d="M3499 7698 c-1 -2 -2 -15 -3 -30 -2 -30 8 -37 18 -13 3 8 1 15 -5 15
-6 0 -9 7 -5 15 4 12 0 23 -5 13z"/>
<path d="M3825 7690 c-3 -5 -1 -10 4 -10 6 0 11 5 11 10 0 6 -2 10 -4 10 -3 0
-8 -4 -11 -10z"/>
<path d="M3883 7687 c-3 -6 -1 -7 5 -3 7 4 12 2 12 -3 0 -6 -6 -11 -12 -11 -9
0 -8 -3 2 -10 17 -11 19 -9 24 17 4 21 -20 28 -31 10z"/>
<path d="M3951 7684 c0 -11 3 -14 6 -6 3 7 2 16 -1 19 -3 4 -6 -2 -5 -13z"/>
<path d="M4296 7685 c-3 -8 -1 -15 4 -15 6 0 10 7 10 15 0 8 -2 15 -4 15 -2 0
-6 -7 -10 -15z"/>
<path d="M4550 7691 c0 -6 4 -13 10 -16 6 -3 7 1 4 9 -7 18 -14 21 -14 7z"/>
<path d="M5336 7683 c-6 -14 -5 -15 5 -6 7 7 10 15 7 18 -3 3 -9 -2 -12 -12z"/>
<path d="M5508 7693 c7 -3 16 -2 19 1 4 3 -2 6 -13 5 -11 0 -14 -3 -6 -6z"/>
<path d="M5588 7693 c7 -3 16 -2 19 1 4 3 -2 6 -13 5 -11 0 -14 -3 -6 -6z"/>
<path d="M5826 7687 c3 -10 9 -15 12 -12 3 3 0 11 -7 18 -10 9 -11 8 -5 -6z"/>
<path d="M1794 7679 c-7 -11 12 -29 31 -29 6 1 2 5 -8 11 -9 6 -15 14 -12 20
4 5 4 9 1 9 -3 0 -8 -5 -12 -11z"/>
<path d="M2296 7682 c-2 -4 -1 -14 4 -22 7 -11 9 -9 7 8 -1 24 -3 26 -11 14z"/>
<path d="M2350 7680 c-9 -6 -10 -10 -3 -10 6 0 15 5 18 10 8 12 4 12 -15 0z"/>
<path d="M2697 7675 c-4 -8 -2 -17 3 -20 6 -4 10 3 10 14 0 25 -6 27 -13 6z"/>
<path d="M3640 7685 c0 -2 6 -8 13 -14 10 -8 14 -7 14 2 0 8 -6 14 -14 14 -7
0 -13 -1 -13 -2z"/>
<path d="M5806 7677 c3 -10 9 -15 12 -12 3 3 0 11 -7 18 -10 9 -11 8 -5 -6z"/>
<path d="M6132 7671 c7 -9 13 -18 15 -20 1 -2 1 5 0 16 0 11 -7 20 -14 20 -10
0 -10 -4 -1 -16z"/>
<path d="M6450 7683 c5 -2 8 -9 5 -13 -3 -5 -1 -11 4 -14 5 -4 8 2 7 11 -2 9
-8 18 -15 19 -6 1 -7 0 -1 -3z"/>
<path d="M2172 7658 c7 -15 15 -23 17 -17 2 6 -4 18 -13 27 -15 15 -15 15 -4
-10z"/>
<path d="M2450 7673 c0 -6 5 -15 12 -19 8 -5 6 -10 -8 -15 -16 -6 -16 -8 -2
-8 24 -1 30 13 13 35 -8 10 -15 14 -15 7z"/>
<path d="M4212 7668 c2 -6 10 -13 16 -14 7 -1 8 0 2 3 -5 2 -8 9 -4 14 3 5 0
9 -6 9 -7 0 -10 -5 -8 -12z"/>
<path d="M6170 7666 c7 -7 13 -7 20 0 6 6 3 10 -10 10 -13 0 -16 -4 -10 -10z"/>
<path d="M6530 7673 c0 -4 5 -15 10 -23 8 -13 10 -13 10 2 0 9 -4 20 -10 23
-5 3 -10 3 -10 -2z"/>
<path d="M1644 7648 l-19 -23 23 19 c21 18 27 26 19 26 -2 0 -12 -10 -23 -22z"/>
<path d="M2259 7663 c-1 -5 -1 -12 0 -17 1 -4 -4 -16 -11 -25 -12 -14 -11 -14
4 -3 9 7 16 22 15 33 -1 19 -6 26 -8 12z"/>
<path d="M2576 7648 c10 -13 20 -25 21 -27 1 -2 1 6 0 17 0 11 -5 18 -9 16 -4
-3 -8 0 -8 5 0 6 -5 11 -12 11 -6 0 -3 -10 8 -22z"/>
<path d="M2615 7660 c-3 -5 -1 -10 4 -10 6 0 11 5 11 10 0 6 -2 10 -4 10 -3 0
-8 -4 -11 -10z"/>
<path d="M2730 7655 c8 -11 15 -21 16 -23 1 -2 5 5 8 15 4 9 4 14 0 10 -4 -4
-14 -1 -23 6 -14 11 -15 10 -1 -8z"/>
<path d="M3055 7648 c16 -27 35 -29 35 -6 0 6 -3 8 -7 5 -3 -4 -15 1 -26 10
-20 18 -20 18 -2 -9z"/>
<path d="M3372 7650 c7 -11 17 -20 22 -20 5 0 1 9 -9 20 -10 11 -20 20 -22 20
-2 0 2 -9 9 -20z"/>
<path d="M3448 7655 c6 -11 10 -23 11 -27 1 -5 4 -9 9 -10 4 0 12 -8 19 -17 7
-9 12 -11 12 -6 0 6 -13 26 -30 45 -17 19 -26 26 -21 15z"/>
<path d="M4650 7660 c-123 -6 -122 -6 50 -7 96 0 168 1 160 3 -37 8 -94 9
-210 4z"/>
<path d="M4938 7663 c6 -2 18 -2 25 0 6 3 1 5 -13 5 -14 0 -19 -2 -12 -5z"/>
<path d="M5063 7663 c15 -2 37 -2 50 0 12 2 0 4 -28 4 -27 0 -38 -2 -22 -4z"/>
<path d="M5295 7659 c-61 -5 -54 -6 50 -7 66 -1 172 -5 235 -8 63 -4 113 -4
110 -1 -3 3 -75 9 -160 12 -85 4 -157 8 -160 9 -3 1 -36 -2 -75 -5z"/>
<path d="M6000 7666 c0 -2 8 -10 18 -17 15 -13 16 -12 3 4 -13 16 -21 21 -21
13z"/>
<path d="M6960 7666 c0 -2 8 -10 18 -17 15 -13 16 -12 3 4 -13 16 -21 21 -21
13z"/>
<path d="M7293 7650 c8 -14 17 -35 20 -45 5 -20 5 -20 6 0 0 11 -9 31 -20 45
l-21 25 15 -25z"/>
<path d="M7365 7660 c3 -5 8 -10 11 -10 2 0 4 5 4 10 0 6 -5 10 -11 10 -5 0
-7 -4 -4 -10z"/>
<path d="M2334 7631 c-1 -14 1 -20 3 -13 3 6 12 12 21 13 11 0 12 2 4 6 -6 2
-10 8 -8 12 3 4 0 8 -7 8 -7 0 -13 -12 -13 -26z"/>
<path d="M2420 7640 c-6 -11 -8 -20 -6 -20 3 0 10 9 16 20 6 11 8 20 6 20 -3
0 -10 -9 -16 -20z"/>
<path d="M2500 7651 c0 -6 5 -11 11 -11 5 0 7 -4 4 -10 -3 -5 -1 -10 4 -10 16
0 13 16 -4 30 -10 9 -15 9 -15 1z"/>
<path d="M2543 7645 c0 -8 4 -12 9 -9 5 3 6 10 3 15 -9 13 -12 11 -12 -6z"/>
<path d="M3216 7648 c3 -5 10 -6 15 -3 13 9 11 12 -6 12 -8 0 -12 -4 -9 -9z"/>
<path d="M3790 7653 c0 -13 17 -26 38 -29 6 -1 10 2 6 7 -3 5 -9 7 -14 4 -5
-3 -13 3 -19 12 -6 10 -11 13 -11 6z"/>
<path d="M4415 7650 l-80 -6 80 -2 c44 -1 87 3 95 8 13 9 13 10 0 8 -8 -1 -51
-5 -95 -8z"/>
<path d="M6110 7649 c0 -5 5 -7 10 -4 6 3 10 8 10 11 0 2 -4 4 -10 4 -5 0 -10
-5 -10 -11z"/>
<path d="M6261 7643 c7 -12 15 -20 18 -17 3 2 -3 12 -13 22 -17 16 -18 16 -5
-5z"/>
<path d="M6496 7648 c3 -5 10 -6 15 -3 13 9 11 12 -6 12 -8 0 -12 -4 -9 -9z"/>
<path d="M7615 7650 c3 -5 8 -10 11 -10 2 0 4 5 4 10 0 6 -5 10 -11 10 -5 0
-7 -4 -4 -10z"/>
<path d="M1776 7634 c-5 -14 -4 -15 9 -4 17 14 19 20 6 20 -5 0 -12 -7 -15
-16z"/>
<path d="M2660 7639 c0 -5 5 -7 10 -4 6 3 10 8 10 11 0 2 -4 4 -10 4 -5 0 -10
-5 -10 -11z"/>
<path d="M3140 7640 c0 -5 7 -7 15 -4 8 4 15 8 15 10 0 2 -7 4 -15 4 -8 0 -15
-4 -15 -10z"/>
<path d="M3310 7640 c8 -5 20 -10 25 -10 6 0 3 5 -5 10 -8 5 -19 10 -25 10 -5
0 -3 -5 5 -10z"/>
<path d="M3861 7643 c-1 -17 16 -25 25 -12 4 7 3 9 -4 5 -5 -3 -13 0 -15 6 -4
9 -6 10 -6 1z"/>
<path d="M4030 7638 c0 -11 -29 -17 -127 -27 -71 -7 -158 -15 -194 -19 -58 -7
-66 -6 -62 8 4 12 2 12 -9 -1 -9 -11 -39 -20 -83 -25 -39 -4 -63 -9 -54 -11 9
-2 119 7 245 21 126 14 309 31 406 37 97 7 175 16 172 21 -3 5 -9 6 -13 3 -19
-11 -254 -15 -268 -4 -10 9 -13 8 -13 -3z"/>
<path d="M5700 7640 c0 -6 24 -10 53 -10 29 0 151 -9 271 -20 120 -12 221 -18
224 -15 3 3 -3 5 -14 5 -10 0 -57 5 -104 11 -122 14 -131 15 -275 23 -71 4
-136 9 -142 11 -7 3 -13 0 -13 -5z"/>
<path d="M7460 7641 c0 -6 4 -13 10 -16 6 -3 7 1 4 9 -7 18 -14 21 -14 7z"/>
<path d="M1957 7633 c-10 -9 -9 -23 1 -23 5 0 9 7 9 15 0 17 -1 18 -10 8z"/>
<path d="M2860 7631 c0 -6 4 -12 8 -15 5 -3 9 1 9 9 0 8 -4 15 -9 15 -4 0 -8
-4 -8 -9z"/>
<path d="M3625 7630 c4 -6 11 -8 16 -4 5 3 17 0 25 -7 12 -10 13 -9 8 5 -3 9
-17 16 -31 16 -14 0 -22 -4 -18 -10z"/>
<path d="M3715 7629 c-4 -6 -4 -13 -1 -16 3 -4 6 -1 6 5 0 6 7 9 17 5 11 -4
14 -3 9 5 -9 15 -23 15 -31 1z"/>
<path d="M6386 7627 c3 -10 9 -15 12 -12 3 3 0 11 -7 18 -10 9 -11 8 -5 -6z"/>
<path d="M6740 7636 c0 -2 7 -7 16 -10 8 -3 12 -2 9 4 -6 10 -25 14 -25 6z"/>
<path d="M7130 7636 c0 -2 7 -7 16 -10 8 -3 12 -2 9 4 -6 10 -25 14 -25 6z"/>
<path d="M7550 7629 c0 -5 5 -7 10 -4 6 3 10 8 10 11 0 2 -4 4 -10 4 -5 0 -10
-5 -10 -11z"/>
<path d="M2485 7621 c-3 -5 -2 -12 3 -15 5 -3 9 1 9 9 0 17 -3 19 -12 6z"/>
<path d="M2635 7619 c-4 -6 -5 -12 -2 -15 2 -3 7 2 10 11 7 17 1 20 -8 4z"/>
<path d="M3537 7619 c7 -7 15 -10 18 -7 3 3 -2 9 -12 12 -14 6 -15 5 -6 -5z"/>
<path d="M2177 7609 c7 -7 15 -10 18 -7 3 3 -2 9 -12 12 -14 6 -15 5 -6 -5z"/>
<path d="M3590 7611 c0 -10 19 -25 25 -20 1 2 -3 10 -11 17 -8 7 -14 8 -14 3z"/>
<path d="M7670 7611 c0 -6 4 -13 10 -16 6 -3 7 1 4 9 -7 18 -14 21 -14 7z"/>
<path d="M1584 7578 c-74 -82 -87 -98 -82 -98 3 0 31 29 63 65 58 66 73 92 19
33z"/>
<path d="M2280 7606 c0 -2 8 -10 18 -17 15 -13 16 -12 3 4 -13 16 -21 21 -21
13z"/>
<path d="M3330 7602 c0 -12 19 -26 26 -19 2 2 -2 10 -11 17 -9 8 -15 8 -15 2z"/>
<path d="M6844 7596 c-6 -7 -3 -17 10 -30 15 -15 18 -16 13 -3 -3 8 -2 17 3
19 4 2 3 8 -4 14 -8 8 -14 8 -22 0z"/>
<path d="M1818 7580 c-14 -10 -29 -16 -33 -12 -5 4 -5 1 -1 -6 6 -10 11 -10
21 -2 10 8 14 7 18 -2 4 -11 7 -11 18 0 8 7 10 13 4 12 -24 -5 -27 1 -9 15 10
8 16 15 13 15 -4 0 -18 -9 -31 -20z"/>
<path d="M2465 7590 c-3 -5 -1 -10 4 -10 6 0 11 5 11 10 0 6 -2 10 -4 10 -3 0
-8 -4 -11 -10z"/>
<path d="M2670 7586 c0 -8 4 -17 9 -20 5 -4 7 3 4 14 -6 23 -13 26 -13 6z"/>
<path d="M2853 7593 c4 -3 1 -13 -6 -22 -11 -14 -10 -14 5 -2 16 12 16 31 1
31 -4 0 -3 -3 0 -7z"/>
<path d="M3105 7589 c-4 -6 -5 -12 -2 -15 2 -3 7 2 10 11 7 17 1 20 -8 4z"/>
<path d="M6646 7587 c3 -10 9 -15 12 -12 3 3 0 11 -7 18 -10 9 -11 8 -5 -6z"/>
<path d="M6670 7586 c0 -9 6 -16 14 -16 8 0 16 -6 19 -12 3 -7 4 -3 4 9 -1 12
-3 20 -6 18 -2 -3 -10 0 -18 6 -10 9 -13 8 -13 -5z"/>
<path d="M6758 7591 c5 -3 14 -15 21 -26 9 -14 11 -15 7 -3 -3 10 2 21 10 26
11 6 7 9 -16 9 -17 0 -27 -3 -22 -6z"/>
<path d="M7339 7587 c-15 -11 -15 -14 -1 -27 14 -13 15 -12 10 2 -4 8 -1 21 5
27 15 15 6 14 -14 -2z"/>
<path d="M2046 7578 c3 -5 10 -6 15 -3 13 9 11 12 -6 12 -8 0 -12 -4 -9 -9z"/>
<path d="M2123 7573 c0 -9 4 -10 14 -2 7 6 13 12 13 14 0 1 -6 2 -13 2 -8 0
-14 -6 -14 -14z"/>
<path d="M2204 7582 c3 -5 0 -13 -6 -15 -9 -4 -10 -6 -1 -6 17 -1 25 16 12 25
-7 4 -9 3 -5 -4z"/>
<path d="M2373 7568 c7 -10 21 -18 32 -17 18 0 18 1 -3 10 -13 5 -21 13 -18
17 3 5 -1 9 -8 9 -11 0 -12 -4 -3 -19z"/>
<path d="M2523 7570 c-8 -12 -9 -21 -3 -25 6 -4 9 -1 8 7 -2 7 2 12 8 11 6 -1
11 5 11 13 0 20 -10 18 -24 -6z"/>
<path d="M2608 7569 c9 -9 21 -14 26 -11 5 3 6 -3 2 -13 -5 -15 -4 -16 9 -5
17 14 11 30 -11 30 -8 0 -13 4 -10 8 2 4 -4 8 -14 8 -18 0 -18 -1 -2 -17z"/>
<path d="M3130 7585 c0 -2 6 -8 13 -14 10 -8 14 -7 14 2 0 8 -6 14 -14 14 -7
0 -13 -1 -13 -2z"/>
<path d="M6285 7583 c17 -2 140 -20 273 -39 134 -20 247 -33 250 -30 3 3 -1 6
-9 6 -8 0 -57 7 -109 15 -183 29 -383 55 -409 54 -24 -2 -24 -2 4 -6z"/>
<path d="M6919 7568 c-11 -20 -10 -21 3 -11 8 7 17 11 20 8 2 -3 5 2 5 10 0
22 -15 18 -28 -7z"/>
<path d="M7006 7581 c-17 -6 -17 -8 -4 -14 10 -3 19 0 22 9 3 8 4 14 3 13 -1
0 -11 -4 -21 -8z"/>
<path d="M7485 7580 c-3 -6 1 -7 9 -4 18 7 21 14 7 14 -6 0 -13 -4 -16 -10z"/>
<path d="M7738 7583 c7 -3 16 -2 19 1 4 3 -2 6 -13 5 -11 0 -14 -3 -6 -6z"/>
<path d="M8216 7582 c-2 -4 0 -14 6 -22 8 -12 9 -12 5 2 -3 9 -1 19 6 22 9 3
9 5 0 5 -6 1 -14 -3 -17 -7z"/>
<path d="M2253 7565 c0 -8 4 -12 9 -9 5 3 6 10 3 15 -9 13 -12 11 -12 -6z"/>
<path d="M2813 7565 c0 -8 4 -12 9 -9 5 3 6 10 3 15 -9 13 -12 11 -12 -6z"/>
<path d="M3240 7576 c0 -2 7 -7 16 -10 8 -3 12 -2 9 4 -6 10 -25 14 -25 6z"/>
<path d="M7453 7565 c0 -8 4 -12 9 -9 5 3 6 10 3 15 -9 13 -12 11 -12 -6z"/>
<path d="M7533 7565 c0 -8 4 -12 9 -9 5 3 6 10 3 15 -9 13 -12 11 -12 -6z"/>
<path d="M8424 7570 c2 -16 20 -14 24 2 3 10 2 10 -6 -1 -7 -9 -11 -10 -15 -2
-4 7 -5 8 -3 1z"/>
<path d="M2455 7560 c3 -5 8 -10 11 -10 2 0 4 5 4 10 0 6 -5 10 -11 10 -5 0
-7 -4 -4 -10z"/>
<path d="M2580 7566 c0 -2 8 -10 18 -17 15 -13 16 -12 3 4 -13 16 -21 21 -21
13z"/>
<path d="M2700 7558 c0 -4 4 -8 9 -8 6 0 12 4 15 8 3 5 -1 9 -9 9 -8 0 -15 -4
-15 -9z"/>
<path d="M3060 7565 c0 -2 6 -8 13 -14 10 -8 14 -7 14 2 0 8 -6 14 -14 14 -7
0 -13 -1 -13 -2z"/>
<path d="M6725 7559 c-4 -6 -4 -13 0 -17 4 -4 10 -1 12 6 3 6 9 10 14 6 5 -3
9 0 9 5 0 14 -27 14 -35 0z"/>
<path d="M6810 7560 c-12 -8 -10 -10 8 -10 13 0 20 4 17 10 -7 12 -6 12 -25 0z"/>
<path d="M3273 7540 c-68 -9 -126 -20 -130 -25 -5 -4 10 -5 32 -1 22 3 96 13
165 22 69 8 130 17 135 19 21 8 -85 0 -202 -15z"/>
<path d="M7360 7540 c-8 -5 -12 -12 -9 -15 4 -3 12 1 19 10 14 17 11 19 -10 5z"/>
<path d="M2311 7529 c-1 -25 27 -45 42 -30 9 10 8 11 -5 6 -13 -5 -21 0 -27
16 -6 16 -10 18 -10 8z"/>
<path d="M2340 7530 c8 -5 20 -10 25 -10 6 0 3 5 -5 10 -8 5 -19 10 -25 10 -5
0 -3 -5 5 -10z"/>
<path d="M2387 7519 c-4 -16 -3 -18 9 -8 16 13 19 29 5 29 -5 0 -11 -9 -14
-21z"/>
<path d="M2826 7527 c3 -10 9 -15 12 -12 3 3 0 11 -7 18 -10 9 -11 8 -5 -6z"/>
<path d="M2955 7529 c-4 -6 -5 -12 -2 -15 2 -3 7 2 10 11 7 17 1 20 -8 4z"/>
<path d="M7190 7530 c-9 -6 -10 -10 -3 -10 6 0 15 5 18 10 8 12 4 12 -15 0z"/>
<path d="M2115 7520 c3 -5 8 -10 11 -10 2 0 4 5 4 10 0 6 -5 10 -11 10 -5 0
-7 -4 -4 -10z"/>
<path d="M2430 7525 c0 -2 9 -9 20 -15 16 -9 18 -8 14 5 -5 13 -34 22 -34 10z"/>
<path d="M2671 7527 c2 -1 13 -9 24 -17 19 -14 19 -14 6 3 -7 9 -18 17 -24 17
-6 0 -8 -1 -6 -3z"/>
<path d="M2750 7526 c0 -2 7 -6 15 -10 8 -3 15 -1 15 4 0 6 -7 10 -15 10 -8 0
-15 -2 -15 -4z"/>
<path d="M7010 7510 c0 -5 7 -10 15 -10 8 0 15 5 15 10 0 6 -7 10 -15 10 -8 0
-15 -4 -15 -10z"/>
<path d="M8405 7511 c-3 -5 -2 -12 3 -15 5 -3 9 1 9 9 0 17 -3 19 -12 6z"/>
<path d="M2985 7492 c-49 -9 -83 -17 -75 -19 8 -2 62 6 120 16 58 10 92 19 75
19 -16 0 -70 -8 -120 -16z"/>
<path d="M6880 7495 c85 -18 121 -17 50 0 -30 8 -68 14 -85 14 -18 -1 -3 -6
35 -14z"/>
<path d="M7280 7501 c0 -8 41 -23 47 -17 2 1 -8 8 -22 14 -14 6 -25 8 -25 3z"/>
<path d="M2255 7489 c-4 -6 -4 -13 -1 -16 3 -4 6 -1 6 6 0 7 5 9 12 5 7 -4 8
-3 4 4 -9 15 -13 15 -21 1z"/>
<path d="M2575 7490 c4 -6 11 -8 16 -5 14 9 11 15 -7 15 -8 0 -12 -5 -9 -10z"/>
<path d="M2805 7489 c-4 -6 -5 -12 -2 -15 2 -3 7 2 10 11 7 17 1 20 -8 4z"/>
<path d="M2523 7475 c0 -8 4 -12 9 -9 5 3 6 10 3 15 -9 13 -12 11 -12 -6z"/>
<path d="M6990 7480 c0 -4 30 -13 68 -20 37 -6 150 -30 250 -52 101 -22 186
-38 188 -35 2 2 -85 23 -193 47 -109 23 -224 48 -255 55 -32 7 -58 9 -58 5z"/>
<path d="M8432 7478 c2 -6 10 -13 16 -14 7 -1 8 0 2 3 -5 2 -8 9 -4 14 3 5 0
9 -6 9 -7 0 -10 -5 -8 -12z"/>
<path d="M2477 7466 c-4 -10 -1 -13 8 -9 8 3 12 9 9 14 -7 12 -11 11 -17 -5z"/>
<path d="M7285 7469 c-4 -6 -5 -12 -2 -15 2 -3 7 2 10 11 7 17 1 20 -8 4z"/>
<path d="M7447 7469 c7 -7 15 -10 18 -7 3 3 -2 9 -12 12 -14 6 -15 5 -6 -5z"/>
<path d="M2800 7460 c-19 -5 -64 -14 -100 -21 -35 -7 -60 -14 -55 -16 6 -2 64
8 130 21 66 13 107 24 90 24 -16 0 -46 -4 -65 -8z"/>
<path d="M8687 7425 c15 -19 32 -35 37 -35 6 0 -5 16 -24 35 -43 45 -49 45
-13 0z"/>
<path d="M1459 7433 c-13 -16 -12 -17 4 -4 9 7 17 15 17 17 0 8 -8 3 -21 -13z"/>
<path d="M2273 7435 c0 -8 4 -12 9 -9 4 3 8 9 8 15 0 5 -4 9 -8 9 -5 0 -9 -7
-9 -15z"/>
<path d="M2443 7443 c-21 -8 -15 -18 12 -19 14 -1 25 2 25 8 0 5 -4 7 -9 4 -5
-4 -11 -2 -13 2 -1 5 -9 7 -15 5z"/>
<path d="M7330 7440 c0 -13 18 -22 24 -11 3 5 -1 11 -9 15 -8 3 -15 1 -15 -4z"/>
<path d="M7481 7434 c0 -11 3 -14 6 -6 3 7 2 16 -1 19 -3 4 -6 -2 -5 -13z"/>
<path d="M7556 7437 c3 -10 9 -15 12 -12 3 3 0 11 -7 18 -10 9 -11 8 -5 -6z"/>
<path d="M8427 7440 c7 -8 20 -15 29 -16 9 -1 13 1 9 4 -4 4 -10 7 -13 7 -4 0
-14 4 -22 9 -12 7 -13 6 -3 -4z"/>
<path d="M1796 7432 c-2 -4 -1 -14 5 -22 7 -12 9 -10 9 8 0 23 -5 28 -14 14z"/>
<path d="M2180 7420 c-8 -5 -10 -10 -5 -10 6 0 17 5 25 10 8 5 11 10 5 10 -5
0 -17 -5 -25 -10z"/>
<path d="M2598 7413 c6 -2 18 -2 25 0 6 3 1 5 -13 5 -14 0 -19 -2 -12 -5z"/>
<path d="M7450 7416 c0 -2 7 -7 16 -10 8 -3 12 -2 9 4 -6 10 -25 14 -25 6z"/>
<path d="M1860 7406 c0 -2 7 -7 16 -10 8 -3 12 -2 9 4 -6 10 -25 14 -25 6z"/>
<path d="M2350 7399 c0 -5 5 -7 10 -4 6 3 10 8 10 11 0 2 -4 4 -10 4 -5 0 -10
-5 -10 -11z"/>
<path d="M2548 7403 c6 -2 18 -2 25 0 6 3 1 5 -13 5 -14 0 -19 -2 -12 -5z"/>
<path d="M7875 7400 c3 -5 8 -10 11 -10 2 0 4 5 4 10 0 6 -5 10 -11 10 -5 0
-7 -4 -4 -10z"/>
<path d="M8447 7399 c7 -7 15 -10 18 -7 3 3 -2 9 -12 12 -14 6 -15 5 -6 -5z"/>
<path d="M8520 7400 c8 -5 20 -10 25 -10 6 0 3 5 -5 10 -8 5 -19 10 -25 10 -5
0 -3 -5 5 -10z"/>
<path d="M2455 7385 l-50 -14 45 6 c25 3 54 9 65 14 31 12 -4 9 -60 -6z"/>
<path d="M2327 7363 c6 -14 15 -15 53 -4 22 7 20 8 -16 12 -31 3 -40 1 -37 -8z"/>
<path d="M8758 7342 c19 -23 39 -45 45 -49 7 -4 -3 12 -21 35 -19 23 -39 45
-45 49 -7 4 3 -12 21 -35z"/>
<path d="M1346 7298 c-34 -44 -41 -55 -16 -28 42 46 84 100 78 100 -2 0 -30
-33 -62 -72z"/>
<path d="M1826 7353 c-6 -14 -5 -15 5 -6 7 7 10 15 7 18 -3 3 -9 -2 -12 -12z"/>
<path d="M7511 7366 c4 -4 162 -46 174 -46 3 0 0 6 -7 14 -7 8 -16 12 -20 10
-4 -3 -37 2 -73 11 -70 16 -81 18 -74 11z"/>
<path d="M7977 7349 c7 -7 15 -10 18 -7 3 3 -2 9 -12 12 -14 6 -15 5 -6 -5z"/>
<path d="M2298 7343 c7 -3 16 -2 19 1 4 3 -2 6 -13 5 -11 0 -14 -3 -6 -6z"/>
<path d="M7745 7340 c3 -5 8 -10 11 -10 2 0 4 5 4 10 0 6 -5 10 -11 10 -5 0
-7 -4 -4 -10z"/>
<path d="M8646 7338 c3 -4 9 -8 15 -8 5 0 9 4 9 8 0 5 -7 9 -15 9 -8 0 -12 -4
-9 -9z"/>
<path d="M2258 7333 c7 -3 16 -2 19 1 4 3 -2 6 -13 5 -11 0 -14 -3 -6 -6z"/>
<path d="M2218 7323 c7 -3 16 -2 19 1 4 3 -2 6 -13 5 -11 0 -14 -3 -6 -6z"/>
<path d="M2178 7313 c7 -3 16 -2 19 1 4 3 -2 6 -13 5 -11 0 -14 -3 -6 -6z"/>
<path d="M7915 7259 c121 -33 302 -84 403 -114 101 -30 186 -55 190 -54 35 3
-756 230 -797 228 -9 0 83 -27 204 -60z"/>
<path d="M1850 7306 c0 -2 8 -10 18 -17 15 -13 16 -12 3 4 -13 16 -21 21 -21
13z"/>
<path d="M2138 7303 c7 -3 16 -2 19 1 4 3 -2 6 -13 5 -11 0 -14 -3 -6 -6z"/>
<path d="M2017 7278 c-43 -11 -76 -22 -74 -25 5 -4 169 36 176 43 8 8 -24 2
-102 -18z"/>
<path d="M1810 7270 c0 -5 5 -10 11 -10 5 0 7 5 4 10 -3 6 -8 10 -11 10 -2 0
-4 -4 -4 -10z"/>
<path d="M8804 7269 c-4 -8 -3 -9 4 -5 7 4 27 -14 49 -43 21 -27 42 -50 46
-50 9 -1 -67 94 -83 104 -5 3 -12 0 -16 -6z"/>
<path d="M8415 7250 c10 -11 20 -20 22 -20 2 0 -2 9 -9 20 -7 11 -17 20 -22
20 -5 0 -1 -9 9 -20z"/>
<path d="M1885 7240 c-13 -5 -14 -9 -5 -9 8 0 24 4 35 9 13 5 14 9 5 9 -8 0
-24 -4 -35 -9z"/>
<path d="M1790 7215 c-25 -7 -65 -19 -89 -25 -23 -6 -41 -13 -39 -15 4 -5 190
44 197 51 8 8 -24 3 -69 -11z"/>
<path d="M1254 7188 l-29 -33 33 29 c17 17 32 31 32 33 0 8 -8 1 -36 -29z"/>
<path d="M8398 7193 c7 -3 16 -2 19 1 4 3 -2 6 -13 5 -11 0 -14 -3 -6 -6z"/>
<path d="M8805 7191 c-3 -5 -2 -12 3 -15 5 -3 9 1 9 9 0 17 -3 19 -12 6z"/>
<path d="M1570 7150 c-30 -10 -50 -18 -45 -19 6 0 37 8 70 18 33 11 53 19 45
19 -8 1 -40 -7 -70 -18z"/>
<path d="M8938 7123 c17 -21 47 -56 67 -78 20 -22 9 -5 -25 38 -34 42 -64 77
-66 77 -3 0 8 -17 24 -37z"/>
<path d="M1184 7103 c-21 -26 -33 -44 -27 -40 14 9 77 87 70 87 -3 0 -22 -21
-43 -47z"/>
<path d="M1488 7123 c7 -3 16 -2 19 1 4 3 -2 6 -13 5 -11 0 -14 -3 -6 -6z"/>
<path d="M1400 7100 c-18 -12 -2 -12 25 0 13 6 15 9 5 9 -8 0 -22 -4 -30 -9z"/>
<path d="M8535 7080 c11 -5 27 -9 35 -9 9 0 8 4 -5 9 -11 5 -27 9 -35 9 -9 0
-8 -4 5 -9z"/>
<path d="M1276 7064 c-26 -9 -46 -17 -44 -19 2 -2 31 4 63 14 33 11 53 19 45
19 -8 1 -37 -6 -64 -14z"/>
<path d="M8605 7060 c11 -5 27 -9 35 -9 9 0 8 4 -5 9 -11 5 -27 9 -35 9 -9 0
-8 -4 5 -9z"/>
<path d="M1122 7027 c-17 -18 -19 -24 -7 -24 8 0 13 3 10 5 -3 3 2 14 12 24
24 27 10 22 -15 -5z"/>
<path d="M8670 7040 c8 -5 20 -10 25 -10 6 0 3 5 -5 10 -8 5 -19 10 -25 10 -5
0 -3 -5 5 -10z"/>
<path d="M8755 7010 c28 -10 57 -18 65 -18 8 0 -7 8 -35 18 -27 10 -57 18 -65
18 -8 0 8 -8 35 -18z"/>
<path d="M8964 6944 c71 -24 131 -42 133 -40 5 5 -237 86 -252 85 -6 0 48 -20
119 -45z"/>
<path d="M9080 6946 c0 -2 8 -10 18 -17 15 -13 16 -12 3 4 -13 16 -21 21 -21
13z"/>
<path d="M3625 6604 c-162 -14 -290 -69 -422 -180 -106 -90 -140 -185 -93
-261 55 -90 160 -81 224 20 44 68 83 102 166 141 61 29 72 31 180 31 97 0 124
-4 174 -24 59 -24 129 -85 199 -175 74 -94 217 -56 217 58 0 137 -206 326
-401 370 -71 16 -183 25 -244 20z"/>
<path d="M6425 6603 c-133 -12 -252 -53 -353 -122 -185 -126 -238 -303 -109
-364 68 -33 116 -15 176 66 55 73 88 102 152 132 191 87 415 35 536 -124 64
-83 143 -103 199 -50 82 77 41 197 -105 310 -145 112 -328 168 -496 152z"/>
<path d="M4980 6000 c-175 -18 -293 -140 -260 -269 16 -64 43 -105 98 -144
165 -120 425 -109 577 24 94 83 100 225 13 306 -32 30 -125 72 -173 77 -82 10
-192 13 -255 6z"/>
<path d="M2903 5825 c-116 -25 -235 -111 -282 -203 -112 -220 -34 -475 177
-579 73 -37 80 -38 182 -38 100 0 109 2 175 34 233 115 308 406 158 621 -94
135 -255 199 -410 165z"/>
<path d="M7063 5815 c-190 -59 -320 -271 -286 -468 24 -140 99 -244 221 -304
74 -37 79 -38 181 -38 87 1 117 5 164 24 80 32 165 112 208 198 33 65 34 73
34 178 -1 90 -5 120 -23 165 -45 113 -146 209 -257 244 -62 19 -183 20 -242 1z"/>
<path d="M4369 5243 c-34 -21 -59 -63 -59 -100 0 -45 34 -88 112 -143 209
-148 425 -207 717 -197 254 9 442 69 621 200 94 68 117 107 99 169 -12 46 -49
79 -96 85 -34 4 -48 -2 -137 -61 -162 -107 -285 -146 -489 -153 -257 -10 -433
41 -631 182 -54 39 -95 44 -137 18z"/>
</g>
</svg>
